<?xml version="1.0" encoding="UTF-8" standalone="no"?>
<!-- Created with Inkscape (http://www.inkscape.org/) -->

<svg
   version="1.1"
   id="svg2"
   width="441.33334"
   height="293.33334"
   viewBox="0 0 441.33334 293.33334"
   sodipodi:docname="75_Logo Ouvidoria do Governo do Distrito Federal.ai"
   xmlns:inkscape="http://www.inkscape.org/namespaces/inkscape"
   xmlns:sodipodi="http://sodipodi.sourceforge.net/DTD/sodipodi-0.dtd"
   xmlns="http://www.w3.org/2000/svg"
   xmlns:svg="http://www.w3.org/2000/svg">
  <defs
     id="defs6">
    <clipPath
       clipPathUnits="userSpaceOnUse"
       id="clipPath16">
      <path
         d="M 0,220 H 331 V 0 H 0 Z"
         id="path14" />
    </clipPath>
  </defs>
  <sodipodi:namedview
     id="namedview4"
     pagecolor="#ffffff"
     bordercolor="#000000"
     borderopacity="0.25"
     inkscape:showpageshadow="2"
     inkscape:pageopacity="0.0"
     inkscape:pagecheckerboard="0"
     inkscape:deskcolor="#d1d1d1" />
  <g
     id="g8"
     inkscape:groupmode="layer"
     inkscape:label="75_Logo Ouvidoria do Governo do Distrito Federal"
     transform="matrix(1.3333333,0,0,-1.3333333,0,293.33333)">
    <g
       id="g10">
      <g
         id="g12"
         clip-path="url(#clipPath16)">
        <g
           id="g18"
           transform="translate(68.0013,75.9917)">
          <path
             d="m 0,0 c 5.721,0 10.473,4.291 10.473,10.984 0,6.692 -4.752,10.983 -10.473,10.983 -5.722,0 -10.473,-4.291 -10.473,-10.983 C -10.473,4.291 -5.722,0 0,0 m -18.8,10.984 c 0,11.085 8.532,18.646 18.8,18.646 10.217,0 18.799,-7.561 18.799,-18.646 0,-11.086 -8.582,-18.647 -18.799,-18.647 -10.268,0 -18.8,7.561 -18.8,18.647"
             style="fill:#595956;fill-opacity:1;fill-rule:nonzero;stroke:none"
             id="path20" />
        </g>
        <g
           id="g22"
           transform="translate(115.4306,68.8398)">
          <path
             d="M 0,0 H -7.243 C -7.429,0 -7.581,0.151 -7.581,0.338 V 2.36 c 0,0.315 -0.39,0.458 -0.593,0.217 -1.542,-1.828 -3.955,-3.088 -7.274,-3.088 -5.364,0 -9.91,3.321 -9.91,11.443 v 15.295 c 0,0.186 0.151,0.338 0.337,0.338 h 7.243 c 0.187,0 0.338,-0.152 0.338,-0.338 V 12.312 c 0,-3.321 1.685,-5.773 4.955,-5.773 3.218,0 4.904,2.452 4.904,5.773 v 13.915 c 0,0.186 0.152,0.338 0.338,0.338 H 0 c 0.187,0 0.338,-0.152 0.338,-0.338 V 0.338 C 0.338,0.151 0.187,0 0,0"
             style="fill:#595956;fill-opacity:1;fill-rule:nonzero;stroke:none"
             id="path24" />
        </g>
        <g
           id="g26"
           transform="translate(118.269,95.4043)">
          <path
             d="m 0,0 h 7.333 c 0.139,0 0.264,-0.085 0.315,-0.215 l 6.345,-16.246 c 0.111,-0.287 0.517,-0.287 0.629,0 l 6.345,16.246 C 21.017,-0.085 21.142,0 21.281,0 h 7.333 c 0.242,0 0.405,-0.246 0.312,-0.468 L 18.072,-26.357 c -0.053,-0.126 -0.175,-0.208 -0.311,-0.208 h -6.907 c -0.136,0 -0.259,0.082 -0.312,0.208 L -0.311,-0.468 C -0.405,-0.246 -0.241,0 0,0"
             style="fill:#595956;fill-opacity:1;fill-rule:nonzero;stroke:none"
             id="path28" />
        </g>
        <g
           id="g30"
           transform="translate(149.722,95.4043)">
          <path
             d="M 0,0 H 7.243 C 7.429,0 7.58,-0.151 7.58,-0.338 v -25.889 c 0,-0.186 -0.151,-0.338 -0.337,-0.338 H 0 c -0.187,0 -0.338,0.152 -0.338,0.338 V -0.338 C -0.338,-0.151 -0.187,0 0,0 M 0,9.706 H 7.243 C 7.429,9.706 7.58,9.555 7.58,9.369 V 3.148 C 7.58,2.961 7.429,2.81 7.243,2.81 H 0 c -0.187,0 -0.338,0.151 -0.338,0.338 v 6.221 c 0,0.186 0.151,0.337 0.338,0.337"
             style="fill:#595956;fill-opacity:1;fill-rule:nonzero;stroke:none"
             id="path32" />
        </g>
        <g
           id="g34"
           transform="translate(174.1098,75.3788)">
          <path
             d="m 0,0 c 3.474,0 6.59,2.401 6.59,6.743 0,4.343 -3.116,6.744 -6.59,6.744 -3.372,0 -6.488,-2.452 -6.488,-6.744 C -6.488,2.452 -3.372,0 0,0 m 6.724,-6.539 c -0.187,0 -0.338,0.151 -0.338,0.338 v 2.676 H 6.233 C 5.824,-4.496 3.065,-7.05 -1.635,-7.05 c -6.028,0 -12.669,4.547 -12.669,13.793 0,9.247 6.641,13.793 12.669,13.793 4.7,0 7.459,-2.554 7.868,-3.524 h 0.153 v 12.382 c 0,0.187 0.151,0.338 0.338,0.338 h 7.242 c 0.187,0 0.338,-0.151 0.338,-0.338 V -6.201 c 0,-0.187 -0.151,-0.338 -0.338,-0.338 z"
             style="fill:#595956;fill-opacity:1;fill-rule:nonzero;stroke:none"
             id="path36" />
        </g>
        <g
           id="g38"
           transform="translate(205.0183,75.481)">
          <path
             d="m 0,0 c 3.423,0 6.283,2.554 6.283,6.641 0,4.087 -2.86,6.641 -6.283,6.641 -3.423,0 -6.283,-2.554 -6.283,-6.641 C -6.283,2.554 -3.423,0 0,0 m -14.1,6.641 c 0,9.042 7.152,13.793 14.1,13.793 6.948,0 14.1,-4.751 14.1,-13.793 0,-9.042 -7.152,-13.793 -14.1,-13.793 -6.948,0 -14.1,4.751 -14.1,13.793"
             style="fill:#595956;fill-opacity:1;fill-rule:nonzero;stroke:none"
             id="path40" />
        </g>
        <g
           id="g42"
           transform="translate(221.9601,95.4043)">
          <path
             d="M 0,0 H 7.243 C 7.429,0 7.58,-0.151 7.58,-0.338 v -4.49 c 0,-0.373 0.516,-0.469 0.65,-0.121 1.229,3.176 3.652,5.46 7.575,5.46 0.536,0 1.071,-0.039 1.641,-0.185 0.147,-0.038 0.249,-0.176 0.249,-0.328 v -6.86 c 0,-0.202 -0.177,-0.362 -0.378,-0.335 -0.473,0.064 -0.935,0.096 -1.461,0.096 -5.261,0 -8.276,-3.525 -8.276,-8.531 v -10.595 c 0,-0.186 -0.151,-0.338 -0.337,-0.338 H 0 c -0.187,0 -0.338,0.152 -0.338,0.338 V -0.338 C -0.338,-0.151 -0.187,0 0,0"
             style="fill:#595956;fill-opacity:1;fill-rule:nonzero;stroke:none"
             id="path44" />
        </g>
        <g
           id="g46"
           transform="translate(242.4974,95.4043)">
          <path
             d="M 0,0 H 7.243 C 7.429,0 7.58,-0.151 7.58,-0.338 v -25.889 c 0,-0.186 -0.151,-0.338 -0.337,-0.338 H 0 c -0.187,0 -0.338,0.152 -0.338,0.338 V -0.338 C -0.338,-0.151 -0.187,0 0,0 M 0,9.706 H 7.243 C 7.429,9.706 7.58,9.555 7.58,9.369 V 3.148 C 7.58,2.961 7.429,2.81 7.243,2.81 H 0 c -0.187,0 -0.338,0.151 -0.338,0.338 v 6.221 c 0,0.186 0.151,0.337 0.338,0.337"
             style="fill:#595956;fill-opacity:1;fill-rule:nonzero;stroke:none"
             id="path48" />
        </g>
        <g
           id="g50"
           transform="translate(266.8851,75.3788)">
          <path
             d="m 0,0 c 3.474,0 6.59,2.401 6.59,6.743 0,4.343 -3.116,6.744 -6.59,6.744 -3.372,0 -6.488,-2.452 -6.488,-6.744 C -6.488,2.452 -3.372,0 0,0 m -14.304,6.743 c 0,9.247 6.641,13.793 12.669,13.793 4.7,0 7.459,-2.554 7.868,-3.524 h 0.153 v 2.676 c 0,0.186 0.151,0.338 0.338,0.338 h 7.242 c 0.187,0 0.338,-0.152 0.338,-0.338 V -6.201 c 0,-0.187 -0.151,-0.338 -0.338,-0.338 H 6.724 c -0.187,0 -0.338,0.151 -0.338,0.338 v 2.676 H 6.233 C 5.824,-4.496 3.065,-7.05 -1.635,-7.05 c -6.028,0 -12.669,4.547 -12.669,13.793"
             style="fill:#595956;fill-opacity:1;fill-rule:nonzero;stroke:none"
             id="path52" />
        </g>
        <g
           id="g54"
           transform="translate(72.176,50.5167)">
          <path
             d="M 0,0 C 1.278,0 1.941,0.871 1.941,2.14 1.941,3.408 1.278,4.279 0,4.279 h -0.892 c -0.109,0 -0.197,-0.088 -0.197,-0.196 V 0.197 C -1.089,0.088 -1.001,0 -0.892,0 Z m -2.386,5.304 c 0,0.109 0.088,0.197 0.197,0.197 h 2.236 c 1.856,0 3.248,-1.383 3.248,-3.361 0,-1.979 -1.392,-3.361 -3.248,-3.361 h -2.236 c -0.109,0 -0.197,0.088 -0.197,0.196 z"
             style="fill:#595956;fill-opacity:1;fill-rule:nonzero;stroke:none"
             id="path56" />
        </g>
        <g
           id="g58"
           transform="translate(80.7353,50.4315)">
          <path
             d="M 0,0 C 1.155,0 2.13,0.871 2.13,2.225 2.13,3.579 1.155,4.45 0,4.45 -1.145,4.45 -2.13,3.579 -2.13,2.225 -2.13,0.871 -1.145,0 0,0 m -3.456,2.225 c 0,2.064 1.581,3.456 3.456,3.456 1.875,0 3.465,-1.392 3.465,-3.456 0,-2.064 -1.59,-3.456 -3.465,-3.456 -1.875,0 -3.456,1.392 -3.456,3.456"
             style="fill:#595956;fill-opacity:1;fill-rule:nonzero;stroke:none"
             id="path60" />
        </g>
        <g
           id="g62"
           transform="translate(89.1902,52.6564)">
          <path
             d="m 0,0 c 0,2.092 1.591,3.456 3.484,3.456 0.856,0 1.9,-0.292 2.611,-1.298 C 6.157,2.071 6.131,1.949 6.044,1.888 L 5.417,1.451 C 5.335,1.394 5.222,1.406 5.158,1.482 4.721,2.007 4.132,2.225 3.503,2.225 2.301,2.225 1.326,1.382 1.326,0 c 0,-1.373 0.956,-2.263 2.177,-2.263 0.753,0 1.443,0.325 1.708,1.177 0.039,0.125 -0.058,0.253 -0.189,0.253 H 3.861 c -0.109,0 -0.197,0.088 -0.197,0.196 v 0.696 c 0,0.109 0.088,0.197 0.197,0.197 H 6.356 C 6.457,0.256 6.543,0.18 6.553,0.08 6.758,-2.143 5.255,-3.456 3.446,-3.456 1.581,-3.456 0,-2.093 0,0"
             style="fill:#595956;fill-opacity:1;fill-rule:nonzero;stroke:none"
             id="path64" />
        </g>
        <g
           id="g66"
           transform="translate(101.0253,50.4315)">
          <path
             d="M 0,0 C 1.155,0 2.13,0.871 2.13,2.225 2.13,3.579 1.155,4.45 0,4.45 -1.145,4.45 -2.13,3.579 -2.13,2.225 -2.13,0.871 -1.145,0 0,0 m -3.456,2.225 c 0,2.064 1.581,3.456 3.456,3.456 1.875,0 3.465,-1.392 3.465,-3.456 0,-2.064 -1.59,-3.456 -3.465,-3.456 -1.875,0 -3.456,1.392 -3.456,3.456"
             style="fill:#595956;fill-opacity:1;fill-rule:nonzero;stroke:none"
             id="path68" />
        </g>
        <g
           id="g70"
           transform="translate(105.828,56.0175)">
          <path
             d="M 0,0 H 0.978 C 1.06,0 1.134,-0.051 1.162,-0.129 l 1.643,-4.472 c 0.063,-0.172 0.306,-0.172 0.369,0 l 1.643,4.472 C 4.846,-0.051 4.919,0 5.002,0 H 5.979 C 6.117,0 6.212,-0.139 6.163,-0.267 L 3.72,-6.596 C 3.691,-6.672 3.618,-6.722 3.537,-6.722 H 2.434 c -0.082,0 -0.155,0.05 -0.184,0.126 l -2.433,6.329 C -0.233,-0.138 -0.138,0 0,0"
             style="fill:#595956;fill-opacity:1;fill-rule:nonzero;stroke:none"
             id="path72" />
        </g>
        <g
           id="g74"
           transform="translate(114.061,56.0175)">
          <path
             d="M 0,0 H 3.413 C 3.522,0 3.61,-0.088 3.61,-0.197 v -0.799 c 0,-0.109 -0.088,-0.197 -0.197,-0.197 H 1.297 c -0.108,0 -0.196,-0.088 -0.196,-0.196 v -1.17 c 0,-0.108 0.088,-0.196 0.196,-0.196 h 1.718 c 0.109,0 0.197,-0.088 0.197,-0.197 v -0.781 c 0,-0.108 -0.088,-0.196 -0.197,-0.196 H 1.297 c -0.108,0 -0.196,-0.088 -0.196,-0.197 v -1.207 c 0,-0.108 0.088,-0.196 0.196,-0.196 h 2.201 c 0.109,0 0.197,-0.088 0.197,-0.197 v -0.8 c 0,-0.108 -0.088,-0.196 -0.197,-0.196 H 0 c -0.109,0 -0.197,0.088 -0.197,0.196 v 6.329 C -0.197,-0.088 -0.109,0 0,0"
             style="fill:#595956;fill-opacity:1;fill-rule:nonzero;stroke:none"
             id="path76" />
        </g>
        <g
           id="g78"
           transform="translate(121.9311,52.6468)">
          <path
             d="M 0,0 C 0.71,0 1.193,0.303 1.193,1.089 1.193,1.865 0.71,2.178 0,2.178 H -0.731 C -0.84,2.178 -0.928,2.09 -0.928,1.981 V 0.197 C -0.928,0.088 -0.84,0 -0.731,0 Z m -0.034,-1.127 h -0.697 c -0.109,0 -0.197,-0.088 -0.197,-0.196 v -1.832 c 0,-0.109 -0.088,-0.197 -0.196,-0.197 h -0.904 c -0.109,0 -0.197,0.088 -0.197,0.197 v 6.329 c 0,0.109 0.088,0.197 0.197,0.197 h 2.16 c 1.43,0 2.377,-0.909 2.377,-2.282 C 2.509,0.205 2.12,-0.457 1.458,-0.817 1.359,-0.871 1.327,-0.999 1.388,-1.094 L 2.645,-3.049 C 2.73,-3.18 2.636,-3.352 2.48,-3.352 H 1.567 c -0.068,0 -0.131,0.035 -0.167,0.093 l -1.267,2.04 c -0.036,0.057 -0.099,0.092 -0.167,0.092"
             style="fill:#595956;fill-opacity:1;fill-rule:nonzero;stroke:none"
             id="path80" />
        </g>
        <g
           id="g82"
           transform="translate(126.8712,56.0175)">
          <path
             d="m 0,0 h 0.996 c 0.065,0 0.126,-0.033 0.163,-0.087 l 3.028,-4.505 h 0.047 v 4.395 C 4.234,-0.088 4.322,0 4.431,0 h 0.904 c 0.108,0 0.196,-0.088 0.196,-0.197 v -6.329 c 0,-0.108 -0.088,-0.196 -0.196,-0.196 H 4.339 c -0.065,0 -0.127,0.032 -0.163,0.087 L 1.148,-2.13 H 1.101 v -4.396 c 0,-0.108 -0.088,-0.196 -0.197,-0.196 H 0 c -0.109,0 -0.197,0.088 -0.197,0.196 v 6.329 C -0.197,-0.088 -0.109,0 0,0"
             style="fill:#595956;fill-opacity:1;fill-rule:nonzero;stroke:none"
             id="path84" />
        </g>
        <g
           id="g86"
           transform="translate(137.8658,50.4315)">
          <path
             d="M 0,0 C 1.155,0 2.13,0.871 2.13,2.225 2.13,3.579 1.155,4.45 0,4.45 -1.145,4.45 -2.13,3.579 -2.13,2.225 -2.13,0.871 -1.145,0 0,0 m -3.456,2.225 c 0,2.064 1.581,3.456 3.456,3.456 1.875,0 3.465,-1.392 3.465,-3.456 0,-2.064 -1.59,-3.456 -3.465,-3.456 -1.875,0 -3.456,1.392 -3.456,3.456"
             style="fill:#595956;fill-opacity:1;fill-rule:nonzero;stroke:none"
             id="path88" />
        </g>
        <g
           id="g90"
           transform="translate(148.8013,50.5167)">
          <path
             d="M 0,0 C 1.278,0 1.941,0.871 1.941,2.14 1.941,3.408 1.278,4.279 0,4.279 h -0.892 c -0.109,0 -0.197,-0.088 -0.197,-0.196 V 0.197 C -1.089,0.088 -1.001,0 -0.892,0 Z m -2.386,5.304 c 0,0.109 0.088,0.197 0.197,0.197 h 2.236 c 1.856,0 3.248,-1.383 3.248,-3.361 0,-1.979 -1.392,-3.361 -3.248,-3.361 h -2.236 c -0.109,0 -0.197,0.088 -0.197,0.196 z"
             style="fill:#595956;fill-opacity:1;fill-rule:nonzero;stroke:none"
             id="path92" />
        </g>
        <g
           id="g94"
           transform="translate(157.3607,50.4315)">
          <path
             d="M 0,0 C 1.155,0 2.13,0.871 2.13,2.225 2.13,3.579 1.155,4.45 0,4.45 -1.145,4.45 -2.13,3.579 -2.13,2.225 -2.13,0.871 -1.145,0 0,0 m -3.456,2.225 c 0,2.064 1.581,3.456 3.456,3.456 1.875,0 3.465,-1.392 3.465,-3.456 0,-2.064 -1.59,-3.456 -3.465,-3.456 -1.875,0 -3.456,1.392 -3.456,3.456"
             style="fill:#595956;fill-opacity:1;fill-rule:nonzero;stroke:none"
             id="path96" />
        </g>
        <g
           id="g98"
           transform="translate(168.2962,50.5167)">
          <path
             d="M 0,0 C 1.278,0 1.941,0.871 1.941,2.14 1.941,3.408 1.278,4.279 0,4.279 h -0.892 c -0.109,0 -0.197,-0.088 -0.197,-0.196 V 0.197 C -1.089,0.088 -1.001,0 -0.892,0 Z m -2.386,5.304 c 0,0.109 0.088,0.197 0.197,0.197 h 2.236 c 1.856,0 3.248,-1.383 3.248,-3.361 0,-1.979 -1.392,-3.361 -3.248,-3.361 h -2.236 c -0.109,0 -0.197,0.088 -0.197,0.196 z"
             style="fill:#595956;fill-opacity:1;fill-rule:nonzero;stroke:none"
             id="path100" />
        </g>
        <g
           id="g102"
           transform="translate(173.691,56.0175)">
          <path
             d="m 0,0 h 0.904 c 0.109,0 0.197,-0.088 0.197,-0.197 v -6.329 c 0,-0.108 -0.088,-0.196 -0.197,-0.196 H 0 c -0.109,0 -0.197,0.088 -0.197,0.196 v 6.329 C -0.197,-0.088 -0.109,0 0,0"
             style="fill:#595956;fill-opacity:1;fill-rule:nonzero;stroke:none"
             id="path104" />
        </g>
        <g
           id="g106"
           transform="translate(176.8015,50.9473)">
          <path
             d="m 0,0 0.714,0.328 c 0.096,0.044 0.21,0.004 0.257,-0.091 0.216,-0.446 0.619,-0.81 1.223,-0.81 0.53,0 0.984,0.275 0.984,0.862 0,0.492 -0.293,0.71 -0.975,0.985 l -0.426,0.16 c -0.918,0.37 -1.676,0.881 -1.676,1.904 0,1.126 0.938,1.827 2.074,1.827 1.06,0 1.737,-0.598 2.076,-1.246 C 4.3,3.824 4.266,3.707 4.172,3.655 L 3.536,3.299 C 3.446,3.249 3.331,3.277 3.276,3.365 3.005,3.797 2.663,4.01 2.222,4.01 1.739,4.01 1.38,3.773 1.38,3.328 1.38,2.978 1.578,2.703 2.317,2.419 l 0.454,-0.18 c 1.174,-0.473 1.761,-1.003 1.761,-1.96 0,-1.363 -1.193,-2.026 -2.319,-2.026 -1.103,0 -2.014,0.61 -2.316,1.501 C -0.136,-0.149 -0.093,-0.043 0,0"
             style="fill:#595956;fill-opacity:1;fill-rule:nonzero;stroke:none"
             id="path108" />
        </g>
        <g
           id="g110"
           transform="translate(184.0914,54.8246)">
          <path
             d="m 0,0 h -1.226 c -0.108,0 -0.196,0.088 -0.196,0.197 v 0.799 c 0,0.109 0.088,0.197 0.196,0.197 h 4.142 c 0.109,0 0.197,-0.088 0.197,-0.197 V 0.197 C 3.113,0.088 3.025,0 2.916,0 H 1.69 C 1.582,0 1.494,-0.088 1.494,-0.197 v -5.136 c 0,-0.108 -0.088,-0.196 -0.197,-0.196 H 0.393 c -0.108,0 -0.196,0.088 -0.196,0.196 v 5.136 C 0.197,-0.088 0.109,0 0,0"
             style="fill:#595956;fill-opacity:1;fill-rule:nonzero;stroke:none"
             id="path112" />
        </g>
        <g
           id="g114"
           transform="translate(191.2848,52.6468)">
          <path
             d="M 0,0 C 0.71,0 1.193,0.303 1.193,1.089 1.193,1.865 0.71,2.178 0,2.178 H -0.731 C -0.84,2.178 -0.928,2.09 -0.928,1.981 V 0.197 C -0.928,0.088 -0.84,0 -0.731,0 Z m -0.034,-1.127 h -0.697 c -0.109,0 -0.197,-0.088 -0.197,-0.196 v -1.832 c 0,-0.109 -0.088,-0.197 -0.196,-0.197 h -0.904 c -0.109,0 -0.197,0.088 -0.197,0.197 v 6.329 c 0,0.109 0.088,0.197 0.197,0.197 h 2.16 c 1.43,0 2.377,-0.909 2.377,-2.282 C 2.509,0.205 2.12,-0.457 1.458,-0.817 1.359,-0.871 1.327,-0.999 1.388,-1.094 L 2.645,-3.049 C 2.73,-3.18 2.636,-3.352 2.48,-3.352 H 1.567 c -0.068,0 -0.131,0.035 -0.167,0.093 l -1.267,2.04 c -0.036,0.057 -0.099,0.092 -0.167,0.092"
             style="fill:#595956;fill-opacity:1;fill-rule:nonzero;stroke:none"
             id="path116" />
        </g>
        <g
           id="g118"
           transform="translate(196.1303,56.0175)">
          <path
             d="m 0,0 h 0.904 c 0.109,0 0.197,-0.088 0.197,-0.197 v -6.329 c 0,-0.108 -0.088,-0.196 -0.197,-0.196 H 0 c -0.109,0 -0.197,0.088 -0.197,0.196 v 6.329 C -0.197,-0.088 -0.109,0 0,0"
             style="fill:#595956;fill-opacity:1;fill-rule:nonzero;stroke:none"
             id="path120" />
        </g>
        <g
           id="g122"
           transform="translate(200.509,54.8246)">
          <path
             d="m 0,0 h -1.226 c -0.108,0 -0.196,0.088 -0.196,0.197 v 0.799 c 0,0.109 0.088,0.197 0.196,0.197 h 4.142 c 0.109,0 0.197,-0.088 0.197,-0.197 V 0.197 C 3.113,0.088 3.025,0 2.916,0 H 1.69 C 1.582,0 1.494,-0.088 1.494,-0.197 v -5.136 c 0,-0.108 -0.088,-0.196 -0.197,-0.196 H 0.393 c -0.108,0 -0.196,0.088 -0.196,0.196 v 5.136 C 0.197,-0.088 0.109,0 0,0"
             style="fill:#595956;fill-opacity:1;fill-rule:nonzero;stroke:none"
             id="path124" />
        </g>
        <g
           id="g126"
           transform="translate(208.3653,50.4315)">
          <path
             d="M 0,0 C 1.155,0 2.13,0.871 2.13,2.225 2.13,3.579 1.155,4.45 0,4.45 -1.145,4.45 -2.13,3.579 -2.13,2.225 -2.13,0.871 -1.145,0 0,0 m -3.456,2.225 c 0,2.064 1.581,3.456 3.456,3.456 1.875,0 3.465,-1.392 3.465,-3.456 0,-2.064 -1.59,-3.456 -3.465,-3.456 -1.875,0 -3.456,1.392 -3.456,3.456"
             style="fill:#595956;fill-opacity:1;fill-rule:nonzero;stroke:none"
             id="path128" />
        </g>
        <g
           id="g130"
           transform="translate(217.1115,56.0175)">
          <path
             d="m 0,0 h 3.385 c 0.108,0 0.196,-0.088 0.196,-0.197 v -0.79 c 0,-0.108 -0.088,-0.196 -0.196,-0.196 H 1.297 c -0.108,0 -0.196,-0.088 -0.196,-0.197 v -1.217 c 0,-0.108 0.088,-0.196 0.196,-0.196 h 1.917 c 0.109,0 0.197,-0.088 0.197,-0.197 v -0.714 c 0,-0.109 -0.088,-0.197 -0.197,-0.197 H 1.297 c -0.108,0 -0.196,-0.088 -0.196,-0.196 v -2.429 c 0,-0.108 -0.088,-0.196 -0.197,-0.196 H 0 c -0.109,0 -0.197,0.088 -0.197,0.196 v 6.329 C -0.197,-0.088 -0.109,0 0,0"
             style="fill:#595956;fill-opacity:1;fill-rule:nonzero;stroke:none"
             id="path132" />
        </g>
        <g
           id="g134"
           transform="translate(222.8397,56.0175)">
          <path
             d="M 0,0 H 3.413 C 3.522,0 3.61,-0.088 3.61,-0.197 v -0.799 c 0,-0.109 -0.088,-0.197 -0.197,-0.197 H 1.297 c -0.108,0 -0.196,-0.088 -0.196,-0.196 v -1.17 c 0,-0.108 0.088,-0.196 0.196,-0.196 h 1.718 c 0.109,0 0.197,-0.088 0.197,-0.197 v -0.781 c 0,-0.108 -0.088,-0.196 -0.197,-0.196 H 1.297 c -0.108,0 -0.196,-0.088 -0.196,-0.197 v -1.207 c 0,-0.108 0.088,-0.196 0.196,-0.196 h 2.201 c 0.109,0 0.197,-0.088 0.197,-0.197 v -0.8 c 0,-0.108 -0.088,-0.196 -0.197,-0.196 H 0 c -0.109,0 -0.197,0.088 -0.197,0.196 v 6.329 C -0.197,-0.088 -0.109,0 0,0"
             style="fill:#595956;fill-opacity:1;fill-rule:nonzero;stroke:none"
             id="path136" />
        </g>
        <g
           id="g138"
           transform="translate(230.8708,50.5167)">
          <path
             d="M 0,0 C 1.278,0 1.941,0.871 1.941,2.14 1.941,3.408 1.278,4.279 0,4.279 h -0.892 c -0.109,0 -0.197,-0.088 -0.197,-0.196 V 0.197 C -1.089,0.088 -1.001,0 -0.892,0 Z m -2.386,5.304 c 0,0.109 0.088,0.197 0.197,0.197 h 2.236 c 1.856,0 3.248,-1.383 3.248,-3.361 0,-1.979 -1.392,-3.361 -3.248,-3.361 h -2.236 c -0.109,0 -0.197,0.088 -0.197,0.196 z"
             style="fill:#595956;fill-opacity:1;fill-rule:nonzero;stroke:none"
             id="path140" />
        </g>
        <g
           id="g142"
           transform="translate(236.2655,56.0175)">
          <path
             d="M 0,0 H 3.413 C 3.522,0 3.61,-0.088 3.61,-0.197 v -0.799 c 0,-0.109 -0.088,-0.197 -0.197,-0.197 H 1.297 c -0.108,0 -0.196,-0.088 -0.196,-0.196 v -1.17 c 0,-0.108 0.088,-0.196 0.196,-0.196 h 1.718 c 0.109,0 0.197,-0.088 0.197,-0.197 v -0.781 c 0,-0.108 -0.088,-0.196 -0.197,-0.196 H 1.297 c -0.108,0 -0.196,-0.088 -0.196,-0.197 v -1.207 c 0,-0.108 0.088,-0.196 0.196,-0.196 h 2.201 c 0.109,0 0.197,-0.088 0.197,-0.197 v -0.8 c 0,-0.108 -0.088,-0.196 -0.197,-0.196 H 0 c -0.109,0 -0.197,0.088 -0.197,0.196 v 6.329 C -0.197,-0.088 -0.109,0 0,0"
             style="fill:#595956;fill-opacity:1;fill-rule:nonzero;stroke:none"
             id="path144" />
        </g>
        <g
           id="g146"
           transform="translate(244.1357,52.6468)">
          <path
             d="M 0,0 C 0.71,0 1.193,0.303 1.193,1.089 1.193,1.865 0.71,2.178 0,2.178 H -0.731 C -0.84,2.178 -0.928,2.09 -0.928,1.981 V 0.197 C -0.928,0.088 -0.84,0 -0.731,0 Z m -0.034,-1.127 h -0.697 c -0.109,0 -0.197,-0.088 -0.197,-0.196 v -1.832 c 0,-0.109 -0.088,-0.197 -0.196,-0.197 h -0.904 c -0.109,0 -0.197,0.088 -0.197,0.197 v 6.329 c 0,0.109 0.088,0.197 0.197,0.197 h 2.16 c 1.43,0 2.377,-0.909 2.377,-2.282 C 2.509,0.205 2.12,-0.457 1.458,-0.817 1.359,-0.871 1.327,-0.999 1.388,-1.094 L 2.645,-3.049 C 2.73,-3.18 2.636,-3.352 2.48,-3.352 H 1.567 c -0.068,0 -0.131,0.035 -0.167,0.093 l -1.267,2.04 c -0.036,0.057 -0.099,0.092 -0.167,0.092"
             style="fill:#595956;fill-opacity:1;fill-rule:nonzero;stroke:none"
             id="path148" />
        </g>
        <g
           id="g150"
           transform="translate(252.5786,51.9647)">
          <path
             d="m 0,0 -0.712,1.933 c -0.064,0.172 -0.306,0.172 -0.369,0 L -1.793,0 c -0.048,-0.128 0.047,-0.265 0.184,-0.265 h 1.425 C -0.048,-0.265 0.047,-0.128 0,0 M -0.166,3.927 2.276,-2.402 C 2.326,-2.531 2.231,-2.669 2.093,-2.669 H 1.115 c -0.082,0 -0.156,0.051 -0.184,0.128 L 0.58,-1.586 c -0.028,0.077 -0.102,0.128 -0.184,0.128 h -2.585 c -0.083,0 -0.156,-0.051 -0.185,-0.128 l -0.35,-0.955 c -0.029,-0.077 -0.102,-0.128 -0.185,-0.128 h -0.977 c -0.138,0 -0.233,0.138 -0.184,0.267 l 2.434,6.329 c 0.029,0.076 0.102,0.126 0.183,0.126 h 1.103 c 0.081,0 0.154,-0.05 0.184,-0.126"
             style="fill:#595956;fill-opacity:1;fill-rule:nonzero;stroke:none"
             id="path152" />
        </g>
        <g
           id="g154"
           transform="translate(256.8776,56.0175)">
          <path
             d="m 0,0 h 0.904 c 0.109,0 0.197,-0.088 0.197,-0.197 v -5.136 c 0,-0.108 0.088,-0.196 0.196,-0.196 h 2.23 c 0.108,0 0.196,-0.088 0.196,-0.197 v -0.8 c 0,-0.108 -0.088,-0.196 -0.196,-0.196 H 0 c -0.109,0 -0.197,0.088 -0.197,0.196 v 6.329 C -0.197,-0.088 -0.109,0 0,0"
             style="fill:#595956;fill-opacity:1;fill-rule:nonzero;stroke:none"
             id="path156" />
        </g>
        <g
           id="g158"
           transform="translate(220.12,21.5853)">
          <path
             d="m 0,0 h -109.849 c -4.999,0 -9.088,4.09 -9.088,9.088 v 0 c 0,4.999 4.089,9.088 9.088,9.088 H 0 c 4.999,0 9.088,-4.089 9.088,-9.088 v 0 C 9.088,4.09 4.999,0 0,0"
             style="fill:#0072bf;fill-opacity:1;fill-rule:nonzero;stroke:none"
             id="path160" />
        </g>
        <g
           id="g162"
           transform="translate(112.5777,28.2659)">
          <path
             d="M 0,0 C 1.015,0 2.005,0.681 2.005,1.995 2.005,3.309 1.015,3.99 0,3.99 -1.027,3.99 -2.017,3.309 -2.017,1.995 -2.017,0.681 -1.027,0 0,0 m -2.94,5.046 h 0.574 c 0.213,0 0.386,-0.166 0.386,-0.37 V 4.072 h 0.036 c 0.232,0.481 1.039,1.091 2.201,1.091 1.504,0 3.08,-1.068 3.08,-3.168 0,-2.101 -1.576,-3.168 -3.08,-3.168 -1.162,0 -1.969,0.61 -2.201,1.091 H -1.98 v -2.834 c 0,-0.204 -0.173,-0.37 -0.386,-0.37 H -2.94 c -0.213,0 -0.385,0.166 -0.385,0.37 v 7.592 c 0,0.204 0.172,0.37 0.385,0.37"
             style="fill:#ffffff;fill-opacity:1;fill-rule:nonzero;stroke:none"
             id="path164" />
        </g>
        <g
           id="g166"
           transform="translate(120.4753,28.2659)">
          <path
             d="M 0,0 C 1.027,0 2.017,0.681 2.017,1.995 2.017,3.309 1.027,3.99 0,3.99 -1.015,3.99 -2.005,3.309 -2.005,1.995 -2.005,0.681 -1.015,0 0,0 m -3.337,1.995 c 0,2.1 1.576,3.168 3.08,3.168 1.162,0 1.968,-0.61 2.201,-1.091 H 1.98 v 0.604 c 0,0.204 0.173,0.37 0.386,0.37 H 2.94 c 0.213,0 0.385,-0.166 0.385,-0.37 v -5.362 c 0,-0.205 -0.172,-0.37 -0.385,-0.37 H 2.366 c -0.213,0 -0.386,0.165 -0.386,0.37 v 0.604 H 1.944 c -0.233,-0.481 -1.039,-1.091 -2.201,-1.091 -1.504,0 -3.08,1.067 -3.08,3.168"
             style="fill:#ffffff;fill-opacity:1;fill-rule:nonzero;stroke:none"
             id="path168" />
        </g>
        <g
           id="g170"
           transform="translate(126.0198,33.3117)">
          <path
             d="M 0,0 H 0.574 C 0.787,0 0.96,-0.166 0.96,-0.37 v -1.202 c 0.22,0.915 0.855,1.689 2.016,1.689 0.147,0 0.269,-0.012 0.404,-0.047 v -1.232 c -0.135,0.024 -0.244,0.035 -0.391,0.035 -1.21,0 -2.029,-0.844 -2.029,-2.123 v -2.482 c 0,-0.204 -0.173,-0.37 -0.386,-0.37 H 0 c -0.213,0 -0.385,0.166 -0.385,0.37 V -0.37 C -0.385,-0.166 -0.213,0 0,0"
             style="fill:#ffffff;fill-opacity:1;fill-rule:nonzero;stroke:none"
             id="path172" />
        </g>
        <g
           id="g174"
           transform="translate(131.4902,28.6883)">
          <path
             d="m 0,0 v 3.209 c 0,0.204 -0.172,0.37 -0.385,0.37 h -0.11 c -0.212,0 -0.385,0.165 -0.385,0.37 v 0.305 c 0,0.204 0.173,0.369 0.385,0.369 h 0.11 C -0.172,4.623 0,4.789 0,4.993 v 0.821 c 0,0.205 0.172,0.37 0.385,0.37 h 0.587 c 0.213,0 0.385,-0.165 0.385,-0.37 V 4.993 c 0,-0.204 0.173,-0.37 0.385,-0.37 h 0.514 c 0.212,0 0.385,-0.165 0.385,-0.369 V 3.949 c 0,-0.205 -0.173,-0.37 -0.385,-0.37 H 1.742 C 1.53,3.579 1.357,3.413 1.357,3.209 V 0.235 c 0,-0.352 0.196,-0.622 0.697,-0.622 0.147,0 0.354,0.023 0.587,0.105 v -0.809 c 0,-0.143 -0.082,-0.281 -0.22,-0.335 C 2.192,-1.517 1.902,-1.549 1.65,-1.549 0.685,-1.549 0,-1.091 0,0"
             style="fill:#ffffff;fill-opacity:1;fill-rule:nonzero;stroke:none"
             id="path176" />
        </g>
        <g
           id="g178"
           transform="translate(136.1058,33.3117)">
          <path
             d="m 0,0 h 0.574 c 0.213,0 0.385,-0.166 0.385,-0.37 v -5.362 c 0,-0.204 -0.172,-0.37 -0.385,-0.37 H 0 c -0.213,0 -0.385,0.166 -0.385,0.37 V -0.37 C -0.385,-0.166 -0.213,0 0,0 m 0,2.23 h 0.574 c 0.213,0 0.385,-0.166 0.385,-0.37 V 1.437 C 0.959,1.233 0.787,1.068 0.574,1.068 H 0 c -0.213,0 -0.385,0.165 -0.385,0.369 V 1.86 c 0,0.204 0.172,0.37 0.385,0.37"
             style="fill:#ffffff;fill-opacity:1;fill-rule:nonzero;stroke:none"
             id="path180" />
        </g>
        <g
           id="g182"
           transform="translate(138.5935,30.2607)">
          <path
             d="m 0,0 c 0,2.054 1.662,3.168 3.325,3.168 0.978,0 1.89,-0.39 2.495,-1.162 C 5.957,1.832 5.907,1.581 5.715,1.466 L 5.348,1.247 C 5.186,1.15 4.978,1.185 4.853,1.323 4.479,1.735 3.943,1.983 3.337,1.983 2.31,1.983 1.332,1.256 1.332,0 c 0,-1.256 0.978,-1.983 2.005,-1.983 0.606,0 1.142,0.248 1.516,0.661 0.125,0.138 0.333,0.172 0.495,0.076 L 5.713,-1.464 C 5.906,-1.58 5.955,-1.832 5.818,-2.006 5.213,-2.77 4.302,-3.168 3.325,-3.168 1.662,-3.168 0,-2.054 0,0"
             style="fill:#ffffff;fill-opacity:1;fill-rule:nonzero;stroke:none"
             id="path184" />
        </g>
        <g
           id="g186"
           transform="translate(146.546,33.3117)">
          <path
             d="M 0,0 H 0.574 C 0.787,0 0.96,-0.166 0.96,-0.37 v -5.362 c 0,-0.204 -0.173,-0.37 -0.386,-0.37 H 0 c -0.213,0 -0.385,0.166 -0.385,0.37 V -0.37 C -0.385,-0.166 -0.213,0 0,0 M 0,2.23 H 0.574 C 0.787,2.23 0.96,2.064 0.96,1.86 V 1.437 C 0.96,1.233 0.787,1.068 0.574,1.068 H 0 c -0.213,0 -0.385,0.165 -0.385,0.369 V 1.86 c 0,0.204 0.172,0.37 0.385,0.37"
             style="fill:#ffffff;fill-opacity:1;fill-rule:nonzero;stroke:none"
             id="path188" />
        </g>
        <g
           id="g190"
           transform="translate(152.6644,28.2659)">
          <path
             d="M 0,0 C 1.015,0 2.005,0.681 2.005,1.995 2.005,3.309 1.015,3.99 0,3.99 -1.027,3.99 -2.017,3.309 -2.017,1.995 -2.017,0.681 -1.027,0 0,0 m -2.94,5.046 h 0.574 c 0.213,0 0.386,-0.166 0.386,-0.37 V 4.072 h 0.036 c 0.232,0.481 1.039,1.091 2.201,1.091 1.504,0 3.08,-1.068 3.08,-3.168 0,-2.101 -1.576,-3.168 -3.08,-3.168 -1.162,0 -1.969,0.61 -2.201,1.091 H -1.98 v -2.834 c 0,-0.204 -0.173,-0.37 -0.386,-0.37 H -2.94 c -0.213,0 -0.385,0.166 -0.385,0.37 v 7.592 c 0,0.204 0.172,0.37 0.385,0.37"
             style="fill:#ffffff;fill-opacity:1;fill-rule:nonzero;stroke:none"
             id="path192" />
        </g>
        <g
           id="g194"
           transform="translate(160.562,28.2659)">
          <path
             d="M 0,0 C 1.027,0 2.017,0.681 2.017,1.995 2.017,3.309 1.027,3.99 0,3.99 -1.015,3.99 -2.005,3.309 -2.005,1.995 -2.005,0.681 -1.015,0 0,0 m -3.337,1.995 c 0,2.1 1.576,3.168 3.08,3.168 1.162,0 1.968,-0.61 2.201,-1.091 H 1.98 v 0.604 c 0,0.204 0.173,0.37 0.386,0.37 H 2.94 c 0.213,0 0.385,-0.166 0.385,-0.37 v -5.362 c 0,-0.205 -0.172,-0.37 -0.385,-0.37 H 2.366 c -0.213,0 -0.386,0.165 -0.386,0.37 v 0.604 H 1.944 c -0.233,-0.481 -1.039,-1.091 -2.201,-1.091 -1.504,0 -3.08,1.067 -3.08,3.168"
             style="fill:#ffffff;fill-opacity:1;fill-rule:nonzero;stroke:none"
             id="path196" />
        </g>
        <g
           id="g198"
           transform="translate(165.4765,27.8552)">
          <path
             d="M 0,0 C 0,0.446 0.355,0.751 0.782,0.751 1.223,0.751 1.577,0.446 1.577,0 1.577,-0.446 1.223,-0.763 0.782,-0.763 0.355,-0.763 0,-0.446 0,0"
             style="fill:#ffffff;fill-opacity:1;fill-rule:nonzero;stroke:none"
             id="path200" />
        </g>
        <g
           id="g202"
           transform="translate(171.6748,28.2659)">
          <path
             d="M 0,0 C 1.027,0 2.017,0.681 2.017,1.995 2.017,3.309 1.027,3.99 0,3.99 -1.015,3.99 -2.005,3.309 -2.005,1.995 -2.005,0.681 -1.015,0 0,0 m 2.366,-1.056 c -0.213,0 -0.386,0.165 -0.386,0.37 v 0.604 H 1.944 c -0.233,-0.481 -1.039,-1.091 -2.201,-1.091 -1.504,0 -3.08,1.067 -3.08,3.168 0,2.1 1.576,3.168 3.08,3.168 1.162,0 1.968,-0.61 2.201,-1.091 H 1.98 v 2.834 c 0,0.204 0.173,0.37 0.386,0.37 H 2.94 c 0.213,0 0.385,-0.166 0.385,-0.37 v -7.592 c 0,-0.205 -0.172,-0.37 -0.385,-0.37 z"
             style="fill:#ffffff;fill-opacity:1;fill-rule:nonzero;stroke:none"
             id="path204" />
        </g>
        <g
           id="g206"
           transform="translate(179.1565,35.7878)">
          <path
             d="m 0,0 c 0.255,0 0.55,-0.033 0.811,-0.122 0.153,-0.052 0.253,-0.194 0.253,-0.35 v -0.289 c 0,-0.225 -0.21,-0.401 -0.441,-0.365 -0.117,0.018 -0.219,0.023 -0.293,0.023 -0.611,0 -0.954,-0.317 -0.954,-0.998 v -0.375 h 1.303 c 0.212,0 0.385,-0.166 0.385,-0.37 v -0.305 c 0,-0.204 -0.173,-0.369 -0.385,-0.369 h -0.917 c -0.213,0 -0.386,-0.166 -0.386,-0.37 v -4.318 c 0,-0.205 -0.172,-0.37 -0.385,-0.37 h -0.586 c -0.213,0 -0.385,0.165 -0.385,0.37 v 4.318 c 0,0.204 -0.173,0.37 -0.386,0.37 -0.212,0 -0.385,0.165 -0.385,0.369 v 0.305 c 0,0.204 0.173,0.37 0.385,0.37 h 0.386 v 0.528 C -1.98,-0.305 -0.807,0 0,0"
             style="fill:#ffffff;fill-opacity:1;fill-rule:nonzero;stroke:none"
             id="path208" />
        </g>
        <g
           id="g210"
           transform="translate(181.015,27.8552)">
          <path
             d="M 0,0 C 0,0.446 0.355,0.751 0.782,0.751 1.223,0.751 1.577,0.446 1.577,0 1.577,-0.446 1.223,-0.763 0.782,-0.763 0.355,-0.763 0,-0.446 0,0"
             style="fill:#ffffff;fill-opacity:1;fill-rule:nonzero;stroke:none"
             id="path212" />
        </g>
        <g
           id="g214"
           transform="translate(187.2129,28.2659)">
          <path
             d="M 0,0 C 1.027,0 2.017,0.681 2.017,1.995 2.017,3.309 1.027,3.99 0,3.99 -1.015,3.99 -2.005,3.309 -2.005,1.995 -2.005,0.681 -1.015,0 0,0 m -1.81,-2.877 v 0.28 c 0,0.251 0.253,0.427 0.502,0.352 0.31,-0.094 0.702,-0.16 1.125,-0.16 1.234,0 2.163,0.539 2.163,1.689 v 0.634 H 1.907 c -0.22,-0.481 -1.015,-1.091 -2.164,-1.091 -1.491,0 -3.08,1.067 -3.08,3.168 0,2.1 1.589,3.168 3.08,3.168 1.149,0 1.944,-0.61 2.164,-1.091 H 1.98 v 0.604 c 0,0.204 0.173,0.37 0.386,0.37 H 2.94 c 0.213,0 0.385,-0.166 0.385,-0.37 v -5.322 c 0,-2.253 -1.821,-2.851 -3.276,-2.851 -0.651,0 -1.253,0.118 -1.637,0.284 -0.138,0.058 -0.222,0.192 -0.222,0.336"
             style="fill:#ffffff;fill-opacity:1;fill-rule:nonzero;stroke:none"
             id="path216" />
        </g>
        <g
           id="g218"
           transform="translate(195.3915,28.2777)">
          <path
             d="M 0,0 C 1.039,0 1.98,0.727 1.98,1.983 1.98,3.239 1.039,3.966 0,3.966 -1.039,3.966 -1.993,3.239 -1.993,1.983 -1.993,0.727 -1.039,0 0,0 m -3.325,1.983 c 0,2.054 1.675,3.168 3.325,3.168 1.65,0 3.325,-1.114 3.325,-3.168 0,-2.054 -1.675,-3.168 -3.325,-3.168 -1.65,0 -3.325,1.114 -3.325,3.168"
             style="fill:#ffffff;fill-opacity:1;fill-rule:nonzero;stroke:none"
             id="path220" />
        </g>
        <g
           id="g222"
           transform="translate(200.0306,33.3117)">
          <path
             d="M 0,0 H 0.543 C 0.699,0 0.84,-0.091 0.899,-0.23 L 2.375,-3.7 c 0.131,-0.307 0.584,-0.307 0.714,0.001 l 1.466,3.468 C 4.614,-0.091 4.755,0 4.912,0 H 5.465 C 5.74,0 5.927,-0.27 5.819,-0.514 L 3.456,-5.876 C 3.396,-6.013 3.256,-6.102 3.101,-6.102 H 2.353 c -0.155,0 -0.295,0.089 -0.355,0.226 l -2.353,5.363 C -0.462,-0.27 -0.276,0 0,0"
             style="fill:#ffffff;fill-opacity:1;fill-rule:nonzero;stroke:none"
             id="path224" />
        </g>
        <g
           id="g226"
           transform="translate(206.0156,27.8552)">
          <path
             d="M 0,0 C 0,0.446 0.355,0.751 0.782,0.751 1.223,0.751 1.577,0.446 1.577,0 1.577,-0.446 1.223,-0.763 0.782,-0.763 0.355,-0.763 0,-0.446 0,0"
             style="fill:#ffffff;fill-opacity:1;fill-rule:nonzero;stroke:none"
             id="path228" />
        </g>
        <g
           id="g230"
           transform="translate(212.5072,28.2659)">
          <path
             d="M 0,0 C 1.015,0 2.005,0.681 2.005,1.995 2.005,3.309 1.015,3.99 0,3.99 -1.027,3.99 -2.017,3.309 -2.017,1.995 -2.017,0.681 -1.027,0 0,0 m -2.365,7.276 c 0.212,0 0.385,-0.166 0.385,-0.37 V 4.072 h 0.036 c 0.232,0.481 1.039,1.091 2.201,1.091 1.504,0 3.08,-1.068 3.08,-3.168 0,-2.101 -1.576,-3.168 -3.08,-3.168 -1.162,0 -1.969,0.61 -2.201,1.091 H -1.98 v -0.604 c 0,-0.205 -0.173,-0.37 -0.385,-0.37 H -2.94 c -0.213,0 -0.385,0.165 -0.385,0.37 v 7.592 c 0,0.204 0.172,0.37 0.385,0.37 z"
             style="fill:#ffffff;fill-opacity:1;fill-rule:nonzero;stroke:none"
             id="path232" />
        </g>
        <g
           id="g234"
           transform="translate(217.7584,33.3117)">
          <path
             d="M 0,0 H 0.574 C 0.787,0 0.96,-0.166 0.96,-0.37 v -1.202 c 0.22,0.915 0.855,1.689 2.016,1.689 0.147,0 0.269,-0.012 0.404,-0.047 v -1.232 c -0.135,0.024 -0.244,0.035 -0.391,0.035 -1.21,0 -2.029,-0.844 -2.029,-2.123 v -2.482 c 0,-0.204 -0.173,-0.37 -0.386,-0.37 H 0 c -0.213,0 -0.385,0.166 -0.385,0.37 V -0.37 C -0.385,-0.166 -0.213,0 0,0"
             style="fill:#ffffff;fill-opacity:1;fill-rule:nonzero;stroke:none"
             id="path236" />
        </g>
        <g
           id="g238"
           transform="translate(181.6024,187.7165)">
          <path
             d="m 0,0 c 2.326,-0.772 4.651,-1.548 6.977,-2.323 3.093,-1.03 6.185,-2.063 9.281,-3.086 0.495,-0.164 0.849,-0.444 0.935,-0.975 0.088,-0.544 -0.154,-0.938 -0.597,-1.248 -1.004,-0.704 -1.999,-1.423 -3.084,-2.198 0.136,-0.096 0.255,-0.159 0.346,-0.249 1.377,-1.369 2.752,-2.741 4.124,-4.114 0.624,-0.624 0.624,-1.274 0.005,-1.893 -1.147,-1.147 -2.295,-2.293 -3.444,-3.438 -0.633,-0.631 -1.284,-0.628 -1.924,0.011 -1.367,1.361 -2.733,2.724 -4.096,4.089 -0.095,0.095 -0.167,0.214 -0.268,0.344 -0.761,-1.061 -1.48,-2.054 -2.188,-3.055 -0.238,-0.337 -0.522,-0.586 -0.948,-0.624 -0.593,-0.053 -1.064,0.281 -1.271,0.901 -0.721,2.159 -1.438,4.321 -2.16,6.48 -1.074,3.216 -2.152,6.431 -3.225,9.647 -0.085,0.254 -0.188,0.507 -0.149,0.787 C -1.574,-0.135 -0.842,0.279 0,0 M 25.381,-11.887 21.38,2.579 C 20.36,6.263 16.512,8.444 12.827,7.424 L -4.481,2.636 c -3.684,-1.019 -5.865,-4.868 -4.846,-8.552 l 4.002,-14.466 c 1.019,-3.684 4.868,-5.865 8.552,-4.845 l 17.309,4.788 c 3.684,1.019 5.865,4.868 4.845,8.552"
             style="fill:#0072bf;fill-opacity:1;fill-rule:nonzero;stroke:none"
             id="path240" />
        </g>
        <g
           id="g242"
           transform="translate(196.1468,148.5725)">
          <path
             d="m 0,0 c 1.267,2.629 3.332,4.337 6.243,4.838 2.635,0.453 4.978,-0.335 7.034,-1.993 1.803,-1.454 2.958,-3.344 3.715,-5.904 0.772,-3.166 0.336,-6.436 -2.009,-9.299 C 12.555,-15.322 8.42,-16.129 4.973,-14.46 -0.235,-11.938 -2.536,-5.262 0,0 m -2.023,-21.792 c 1.368,1.94 3.146,3.444 5.125,4.729 0.254,0.165 0.464,0.118 0.712,0.003 1.715,-0.795 3.514,-1.189 5.411,-1.096 2.103,0.103 4.017,0.754 5.747,1.962 1.107,0.773 2.048,1.706 2.815,2.814 0.182,0.264 0.391,0.416 0.742,0.398 1.809,-0.091 3.58,-0.38 5.284,-0.996 1.978,-0.715 3.716,-1.714 4.921,-3.332 1.877,2.516 2.623,5.841 1.726,9.083 L 26.265,6.936 c -1.539,5.565 -7.352,8.859 -12.917,7.319 L -6.968,8.635 c -5.565,-1.54 -8.858,-7.352 -7.319,-12.917 l 4.195,-15.164 c 0.903,-3.264 3.277,-5.744 6.208,-6.929 0.179,1.687 0.879,3.189 1.861,4.583"
             style="fill:#118e3e;fill-opacity:1;fill-rule:nonzero;stroke:none"
             id="path244" />
        </g>
        <g
           id="g246"
           transform="translate(137.421,145.8243)">
          <path
             d="m 0,0 c -1.835,-0.5 -2.407,-2.153 -2.036,-3.512 0.361,-1.325 1.683,-2.425 3.518,-1.925 1.835,0.5 2.382,2.11 2.021,3.435 C 3.132,-0.643 1.835,0.5 0,0"
             style="fill:#f8ad12;fill-opacity:1;fill-rule:nonzero;stroke:none"
             id="path248" />
        </g>
        <g
           id="g250"
           transform="translate(165.8052,142.6458)">
          <path
             d="m 0,0 -14.219,-3.875 c -0.81,-0.221 -1.528,0.572 -1.228,1.356 l 4.03,10.541 c 1.783,4.574 2.111,5.649 1.713,7.11 -0.658,2.413 -2.511,1.981 -2.885,1.879 -0.714,-0.195 -2.258,-1.09 -1.628,-3.401 l 0.185,-0.679 -4.957,-1.351 c -0.546,-0.149 -1.111,0.173 -1.26,0.72 l -0.045,0.165 c -1.074,3.942 0.447,8.408 6.291,10.001 5.165,1.408 9.183,-0.746 10.285,-4.789 C -2.912,14.72 -4.052,12.073 -5.39,8.679 L -6.609,5.433 C -6.904,4.65 -6.187,3.862 -5.379,4.082 l 3.971,1.083 c 0.547,0.149 1.111,-0.174 1.26,-0.721 L 0.72,1.26 C 0.869,0.713 0.547,0.149 0,0 m -25.59,-7.34 c -4.282,-1.167 -9.069,0.595 -10.496,5.828 -1.018,3.737 0.19,6.805 1.269,9.544 l 3.392,8.884 c 0.117,0.306 0.373,0.538 0.689,0.624 l 4.138,1.128 c 0.811,0.221 1.529,-0.572 1.229,-1.357 l -3.456,-9.032 c 0.161,0.08 0.365,0.135 0.568,0.191 3.602,0.981 7.679,-1.12 8.902,-5.605 1.38,-5.063 -1.954,-9.038 -6.235,-10.205 m -12.058,-2.921 -3.898,-1.062 c -0.547,-0.149 -1.111,0.173 -1.26,0.72 l -4.581,16.81 c -0.149,0.547 -0.714,0.87 -1.26,0.721 L -50.949,6.3 c -0.547,-0.149 -1.111,0.174 -1.26,0.721 l -0.914,3.354 c -0.149,0.547 0.173,1.111 0.72,1.26 l 8.18,2.229 c 0.547,0.149 1.111,-0.173 1.26,-0.72 l 6.035,-22.145 c 0.149,-0.547 -0.173,-1.111 -0.72,-1.26 M 9.566,4.363 3.864,25.285 c -2.046,7.506 -9.861,11.974 -17.368,9.928 L -51.976,24.728 c -7.506,-2.046 -11.973,-9.861 -9.927,-17.367 l 5.702,-20.922 c 2.046,-7.506 9.861,-11.974 17.367,-9.928 l 38.472,10.485 c 7.506,2.046 11.973,9.861 9.928,17.367"
             style="fill:#f8ad12;fill-opacity:1;fill-rule:nonzero;stroke:none"
             id="path252" />
        </g>
      </g>
    </g>
  </g>
</svg>
